<svg width="23" height="16" viewBox="0 0 23 16" fill="none" xmlns="http://www.w3.org/2000/svg">
<path id="Arrow 1" d="M1.50879 7.29694C0.956504 7.29694 0.508789 7.74465 0.508789 8.29694C0.508789 8.84922 0.956504 9.29694 1.50879 9.29694V7.29694ZM22.2159 9.00404C22.6064 8.61352 22.6064 7.98035 22.2159 7.58983L15.8519 1.22587C15.4614 0.835344 14.8282 0.835344 14.4377 1.22587C14.0472 1.61639 14.0472 2.24956 14.4377 2.64008L20.0946 8.29694L14.4377 13.9538C14.0472 14.3443 14.0472 14.9775 14.4377 15.368C14.8282 15.7585 15.4614 15.7585 15.8519 15.368L22.2159 9.00404ZM1.50879 9.29694H21.5088V7.29694H1.50879V9.29694Z" fill="#B2BAFF"/>
</svg>
